# xmcd
#
# Track frame offsets:
#	150
#	25295
#	52339
#	124459
#	156578
#	217503
#	232385
#	281527
#
# Disc length: 4194 seconds
#
# Revision: 2
# Processed by: cddbd v1.4PL0 Copyright (c) Steve Scherf et al.
# Submitted via: EZCDDA 4.3.2
#
DISCID=7c106008
DTITLE=John Mayall - Rock The Blues Tonight
DYEAR=1900
DGENRE=
TTITLE0=You Must Be Crazy
TTITLE1=My Pretty Girl
TTITLE2=Possesive Emotions
TTITLE3=Crying
TTITLE4=Took The Car
TTITLE5=Blue Fox
TTITLE6=Devil's Tricks
TTITLE7=Don't Bring Me Down
EXTD=
EXTT0=
EXTT1=
EXTT2=
EXTT3=
EXTT4=
EXTT5=
EXTT6=
EXTT7=
PLAYORDER=
